<svg xmlns="http://www.w3.org/2000/svg" viewBox="0 0 168 168"><defs><style>.cls-1{fill:#eec025;}.cls-2{fill:#fff;}.cls-3{fill:none;stroke:#000;stroke-miterlimit:10;stroke-width:5px;}</style></defs><title>logo-192</title><g id="Layer_4" data-name="Layer 4"><circle class="cls-1" cx="84" cy="84" r="84"/><rect x="28" y="52" width="112" height="72" rx="10" ry="10"/><rect class="cls-2" x="44" y="66" width="12" height="12" rx="3" ry="3"/><rect class="cls-2" x="125" y="78" width="12" height="12" rx="3" ry="3" transform="translate(250 156) rotate(180)"/><rect class="cls-2" x="107.75" y="78" width="12" height="12" rx="3" ry="3" transform="translate(215.5 156) rotate(180)"/><rect class="cls-2" x="90.5" y="78" width="12" height="12" rx="3" ry="3" transform="translate(181 156) rotate(180)"/><rect class="cls-2" x="73.25" y="78" width="12" height="12" rx="3" ry="3" transform="translate(146.5 156) rotate(180)"/><rect class="cls-2" x="44" y="82" width="12" height="12" rx="3" ry="3"/><rect class="cls-2" x="125" y="94" width="12" height="12" rx="3" ry="3" transform="translate(250 188) rotate(180)"/><rect class="cls-2" x="107.75" y="94" width="12" height="12" rx="3" ry="3" transform="translate(215.5 188) rotate(180)"/><rect class="cls-2" x="90.5" y="94" width="12" height="12" rx="3" ry="3" transform="translate(181 188) rotate(180)"/><rect class="cls-2" x="73.25" y="94" width="12" height="12" rx="3" ry="3" transform="translate(146.5 188) rotate(180)"/><rect class="cls-2" x="52" y="100" width="64" height="8" rx="3" ry="3"/><path class="cls-3" d="M50,140" transform="translate(-12 -12)"/></g></svg>